<svg width="23" height="23" viewBox="0 0 23 23" fill="none" xmlns="http://www.w3.org/2000/svg">
<path d="M17.6875 22.125L10.125 14.5C9.70833 14.6667 9.28646 14.7917 8.85938 14.875C8.43229 14.9583 7.97917 15 7.5 15C5.41667 15 3.64583 14.2708 2.1875 12.8125C0.729167 11.3542 0 9.58333 0 7.5C0 6.75 0.104167 6.03646 0.3125 5.35938C0.520833 4.68229 0.8125 4.04167 1.1875 3.4375L5.75 8L8 5.75L3.4375 1.1875C4.04167 0.8125 4.68229 0.520833 5.35938 0.3125C6.03646 0.104167 6.75 0 7.5 0C9.58333 0 11.3542 0.729167 12.8125 2.1875C14.2708 3.64583 15 5.41667 15 7.5C15 7.97917 14.9583 8.43229 14.875 8.85938C14.7917 9.28646 14.6667 9.70833 14.5 10.125L22.125 17.6875C22.375 17.9375 22.5 18.2396 22.5 18.5938C22.5 18.9479 22.375 19.25 22.125 19.5L19.5 22.125C19.25 22.375 18.9479 22.5 18.5938 22.5C18.2396 22.5 17.9375 22.375 17.6875 22.125Z" fill="#005AB3"/>
</svg>
